<svg xmlns="http://www.w3.org/2000/svg" style="display: none;"><symbol id="facebook-app-symbol" viewBox="0 0 155.139 155.139"><title>facebook-app-symbol</title><path id="f_1_"  d="M89.584,155.139V84.378h23.742l3.562-27.585H89.584V39.184 c0-7.984,2.208-13.425,13.67-13.425l14.595-0.006V1.08C115.325,0.752,106.661,0,96.577,0C75.52,0,61.104,12.853,61.104,36.452 v20.341H37.29v27.585h23.814v70.761H89.584z"/></symbol><symbol id="percentage" viewBox="0 0 512 512"><title>percentage</title><path d="M338,266c-33.084,0-60,26.916-60,60s26.916,60,60,60s60-26.916,60-60S371.084,266,338,266z M338,346 c-11.028,0-20-8.972-20-20s8.972-20,20-20s20,8.972,20,20S349.028,346,338,346z"/><path d="M233,186c0-33.084-26.916-60-60-60s-60,26.916-60,60s26.916,60,60,60S233,219.084,233,186z M153,186 c0-11.028,8.972-20,20-20s20,8.972,20,20s-8.972,20-20,20S153,197.028,153,186z"/><path d="M437.02,74.98C388.667,26.629,324.38,0,256,0S123.333,26.629,74.98,74.98C26.629,123.333,0,187.62,0,256 s26.629,132.667,74.98,181.02C123.333,485.371,187.62,512,256,512s132.667-26.629,181.02-74.98 C485.371,388.667,512,324.38,512,256S485.371,123.333,437.02,74.98z M256,472c-119.103,0-216-96.897-216-216S136.897,40,256,40 s216,96.897,216,216S375.103,472,256,472z"/><polygon points="298.13,136 168.401,376 213.87,376 343.599,136 "/></symbol><symbol id="drop-down-arrow" viewBox="0 0 255 255"><title>drop-down-arrow</title><polygon points="0,63.75 127.5,191.25 255,63.75 "/></symbol><symbol id="clock" viewBox="0 0 384 384"><title>clock</title><g> <g> <path d="M192,0C85.961,0,0,85.961,0,192s85.961,192,192,192s192-85.961,192-192S298.039,0,192,0z M192,341.333 c-82.475,0-149.333-66.859-149.333-149.333S109.525,42.667,192,42.667S341.333,109.525,341.333,192S274.475,341.333,192,341.333z"/> </g> </g><g> <g> <polygon points="213.333,184.379 213.333,85.333 170.667,85.333 170.667,202.319 241.077,271.245 270.923,240.755 "/> </g> </g></symbol><symbol id="tick-inside-circle" viewBox="0 0 510 510"><title>tick-inside-circle</title><path d="M150.45,206.55l-35.7,35.7L229.5,357l255-255l-35.7-35.7L229.5,285.6L150.45,206.55z M459,255c0,112.2-91.8,204-204,204 S51,367.2,51,255S142.8,51,255,51c20.4,0,38.25,2.55,56.1,7.65l40.801-40.8C321.3,7.65,288.15,0,255,0C114.75,0,0,114.75,0,255 s114.75,255,255,255s255-114.75,255-255H459z"/></symbol><symbol id="computer-mouse" viewBox="0 0 416.031 416.031"><title>computer-mouse</title><path d="M221.605,0h-31.913C123.743,0,72.083,53.745,72.083,122.356v171.306c0,68.618,51.66,122.369,117.609,122.369h31.913 c67.46,0,122.343-54.894,122.343-122.369V122.356C343.948,54.889,289.065,0,221.605,0z M206.781,64.12h2.469c3.859,0,7,3.14,7,7 v49.833c0,3.86-3.141,7-7,7h-2.469c-3.859,0-7-3.14-7-7V71.12C199.781,67.26,202.922,64.12,206.781,64.12z M327.948,293.662 c0,58.652-47.705,106.369-106.343,106.369h-31.913c-56.978,0-101.609-46.723-101.609-106.369V122.356 C88.083,62.718,132.715,16,189.692,16h10.225v33.167c-9.34,2.927-16.136,11.661-16.136,21.954v49.833 c0,10.292,6.796,19.027,16.136,21.953v41.166c0,4.418,3.582,8,8,8s8-3.582,8-8v-41.108c9.441-2.865,16.333-11.647,16.333-22.011 V71.12c0-10.364-6.892-19.146-16.333-22.012V16h5.688c58.638,0,106.343,47.711,106.343,106.356V293.662z"/></symbol><symbol id="right-chevron" viewBox="0 0 407.436 407.436"><title>right-chevron</title><polygon points="112.814,0 91.566,21.178 273.512,203.718 91.566,386.258 112.814,407.436 315.869,203.718 "/></symbol><symbol id="envelope" viewBox="0 0 479.058 479.058"><title>envelope</title><path d="m434.146 59.882h-389.234c-24.766 0-44.912 20.146-44.912 44.912v269.47c0 24.766 20.146 44.912 44.912 44.912h389.234c24.766 0 44.912-20.146 44.912-44.912v-269.47c0-24.766-20.146-44.912-44.912-44.912zm0 29.941c2.034 0 3.969.422 5.738 1.159l-200.355 173.649-200.356-173.649c1.769-.736 3.704-1.159 5.738-1.159zm0 299.411h-389.234c-8.26 0-14.971-6.71-14.971-14.971v-251.648l199.778 173.141c2.822 2.441 6.316 3.655 9.81 3.655s6.988-1.213 9.81-3.655l199.778-173.141v251.649c-.001 8.26-6.711 14.97-14.971 14.97z"/></symbol><symbol id="hamburger" viewBox="0 0 24 24"><title>hamburger</title><g><path d="m12 24c-6.617 0-12-5.383-12-12s5.383-12 12-12 12 5.383 12 12-5.383 12-12 12zm0-23c-6.065 0-11 4.935-11 11s4.935 11 11 11 11-4.935 11-11-4.935-11-11-11z"/></g><g><path d="m16.5 8h-9c-.276 0-.5-.224-.5-.5s.224-.5.5-.5h9c.276 0 .5.224.5.5s-.224.5-.5.5z"/></g><g><path d="m16.5 12.5h-9c-.276 0-.5-.224-.5-.5s.224-.5.5-.5h9c.276 0 .5.224.5.5s-.224.5-.5.5z"/></g><g><path d="m16.5 17h-9c-.276 0-.5-.224-.5-.5s.224-.5.5-.5h9c.276 0 .5.224.5.5s-.224.5-.5.5z"/></g></symbol></svg>